# xmcd
#
# Track frame offsets:
#	150
#	14103
#	27259
#	50597
#	64579
#	81069
#	90229
#	115790
#	132772
#	144037
#	157761
#	173812
#	186713
#	202179
#	216989
#	233536
#
# Disc length: 3370 seconds
#
# Revision: 1
# Processed by: cddbd v1.5.2PL0 Copyright (c) Steve Scherf et al.
# Submitted via: EasyCDDAExtractor 12.0.1.1
#
DISCID=d40d2810
DTITLE=Slåbrock Band - Bundskrab
DYEAR=1900
DGENRE=Dansk Country
TTITLE0=To Gears Disella
TTITLE1=Banko
TTITLE2=Er Min Ring For Stram
TTITLE3=A Er Så Glå Ve Dyjr - Jagten Går Ind
TTITLE4=Min Ligtorn
TTITLE5=Er Du Fra Tornby
TTITLE6=Lissom
TTITLE7=Sa´ Do Masochist
TTITLE8=Nørhalne
TTITLE9=Nej Læger, Gu´ Fri Os
TTITLE10=Truckdrøwe Maj
TTITLE11=Folde-Ud-Mand
TTITLE12=Bette Kurt
TTITLE13=Ski´ Med Polen
TTITLE14=Kilroy Was Here
TTITLE15=Med Escort (ikke tidligere udgivet)
EXTD=
EXTT0=
EXTT1=
EXTT2=
EXTT3=
EXTT4=
EXTT5=
EXTT6=
EXTT7=
EXTT8=
EXTT9=
EXTT10=
EXTT11=
EXTT12=
EXTT13=
EXTT14=
EXTT15=
PLAYORDER=
